Coordinates
version=1
nRows=12
nColumns=24
inDegrees=yes

Units are S.I. units (second, meters, Newtons, ...)
Angles are in degrees.

endheader
time	pelvis_tilt	pelvis_list	pelvis_rotation	pelvis_tx	pelvis_ty	pelvis_tz	hip_flexion_r	hip_adduction_r	hip_rotation_r	knee_angle_r	ankle_angle_r	subtalar_angle_r	mtp_angle_r	hip_flexion_l	hip_adduction_l	hip_rotation_l	knee_angle_l	ankle_angle_l	subtalar_angle_l	mtp_angle_l	lumbar_extension	lumbar_bending	lumbar_rotation
      0.84166667	      0.23293827	     -0.88046906	     -2.95629931	     -0.46614256	      1.08233261	      0.34874057	      8.15987490	      6.15188380	     -1.55109386	    -10.75197335	     -3.01696855	     -7.26363563	      5.90599709	     11.87554251	     -0.93423739	     -1.57891901	    -59.26673243	     -1.72810845	    -10.85264103	     20.93605618	      3.26185183	      5.40189170	      1.01512715
      0.84583333	      0.25367968	     -0.82215872	     -3.03874083	     -0.46113933	      1.08298809	      0.34900029	      7.78418737	      6.08730408	     -1.48675731	    -10.64132693	     -2.83484337	     -7.12987462	      5.91989902	     12.36898757	     -0.89322779	     -1.43252230	    -59.02039700	     -1.26288286	    -11.58843286	     20.62402157	      3.19256232	      5.30849250	      1.13907545
      0.85000000	      0.30959765	     -0.74012565	     -3.13777109	     -0.45607896	      1.08370088	      0.34917310	      7.37199003	      5.98272208	     -1.47540836	    -10.54356290	     -2.53653608	     -6.64473887	      5.97608553	     12.79478671	     -0.81164601	     -1.29551127	    -58.66267877	     -1.21935128	    -12.61556029	     19.12485716	      3.10855274	      5.22058864	      1.57359448
      0.85416667	      0.30854758	     -0.70362441	     -3.19451933	     -0.45117333	      1.08424527	      0.34956973	      7.01044192	      5.96027993	     -1.34316201	    -10.39705069	     -2.44605170	     -6.68542367	      5.98125741	     13.30059296	     -0.80968047	     -1.11362911	    -58.33261786	     -0.59299893	    -12.91337313	     18.97356149	      3.01834337	      5.10348949	      1.58611748
      0.85833333	      0.33697382	     -0.64078915	     -3.29160890	     -0.44617392	      1.08485901	      0.34984025	      6.61773495	      5.89119715	     -1.25626098	    -10.27000801	     -2.31768226	     -6.68412975	      5.98733613	     13.73344429	     -0.76182714	     -0.96130303	    -57.89597755	     -0.08616798	    -13.25121931	     18.81012943	      2.97430823	      4.99900207	      1.62527919
      0.86250000	      0.34740246	     -0.58886974	     -3.38537104	     -0.44123498	      1.08539275	      0.35012738	      6.24731770	      5.83802655	     -1.15546389	    -10.13600024	     -2.17894888	     -6.63683834	      5.99378207	     14.18167010	     -0.72961297	     -0.80435533	    -57.41121006	      0.33486619	    -13.58017254	     18.65101865	      2.91386195	      4.89990672	      1.68352958
      0.86666667	      0.37091793	     -0.53123464	     -3.49399787	     -0.43627331	      1.08593250	      0.35037938	      5.86140285	      5.77370560	     -1.06569979	    -10.00640336	     -2.02589205	     -6.57069783	      6.00042738	     14.59156021	     -0.68666143	     -0.65789105	    -56.85570316	      0.71347368	    -13.89123371	     18.48312169	      2.85926408	      4.80687939	      1.76045924
      0.87083333	      0.38425505	     -0.48770120	     -3.60186673	     -0.43132916	      1.08642781	      0.35060994	      5.48258936	      5.72401350	     -0.96705500	     -9.86545236	     -1.87125256	     -6.48798388	      6.00721344	     14.99866448	     -0.65738485	     -0.50683087	    -56.24668405	      1.04605400	    -14.16448449	     18.30262550	      2.79710971	      4.73547836	      1.85308035
      0.87500000	      0.40514903	     -0.44470042	     -3.71682353	     -0.42638663	      1.08690581	      0.35082475	      5.09590065	      5.67189939	     -0.87601962	     -9.72446437	     -1.71746422	     -6.40199162	      6.01362902	     15.37924933	     -0.62591017	     -0.35568870	    -55.57645963	      1.33778865	    -14.38836496	     18.11485471	      2.73527882	      4.66878837	      1.95845910
      0.87916667	      0.38200697	     -0.40545229	     -3.82330823	     -0.42152369	      1.08726783	      0.35093282	      4.76806586	      5.61725799	     -0.81017393	     -9.59547753	     -1.64995591	     -6.37022933	      6.01579679	     15.80527638	     -0.59022893	     -0.17761702	    -54.86072908	      1.47594431	    -14.46334964	     18.04455686	      2.64086836	      4.66844077	      1.99315032
      0.88333333	      0.44968852	     -0.36240485	     -4.01262116	     -0.41660633	      1.08776154	      0.35120012	      4.33578511	      5.56319919	     -0.69092549	     -9.46688140	     -1.36362555	     -6.22595676	      6.02534662	     16.08620309	     -0.57078227	     -0.11449615	    -54.07098858	      1.88381676	    -14.74479380	     17.66534079	      2.49597484	      4.58219548	      2.23039086
      0.88750000	      0.70115341	     -0.36042240	     -4.12916860	     -0.41182420	      1.08848297	      0.35130146	      3.68951641	      5.52574401	     -0.60542946	     -9.27893399	     -1.21213810	     -5.82683361	      6.05164542	     16.16694588	     -0.55786023	      0.04589884	    -53.21450835	      1.90327892	    -14.73750125	     14.55811772	      2.01026429	      4.83413139	      3.33539788
